<svg width="469" height="511" viewBox="0 0 469 511" fill="none" xmlns="http://www.w3.org/2000/svg">
<path d="M228 465C102.079 465 0 475.297 0 488C0 500.703 102.079 511 228 511C353.921 511 456 500.703 456 488C456 475.297 353.921 465 228 465Z" fill="#F0F0F5"/>
<path d="M434.38 398.817C434.38 398.817 402.032 491.056 398.566 491.056C395.1 491.056 325.782 512.963 387.013 485.291C387.013 485.291 393.945 384.981 404.343 380.369C414.74 375.758 434.38 398.817 434.38 398.817Z" fill="#965450"/>
<path d="M410.119 465.229C420.632 437.903 434.381 398.817 434.381 398.817C434.381 398.817 414.74 375.758 404.343 380.369C397.642 383.367 392.328 426.489 389.439 456.466C396.371 459.234 403.187 462.231 410.119 465.229Z" fill="#76413B"/>
<path d="M376.962 490.249C376.962 490.249 374.305 496.36 399.721 489.903L398.566 493.362C398.566 493.362 326.938 510.196 376.962 490.249Z" fill="#051F38"/>
<path d="M414.74 359.731C414.74 359.731 464.764 443.784 462.569 446.436C460.374 449.087 432.647 516.191 450.669 451.509C450.669 451.509 378.117 381.753 381.236 370.8C384.471 359.962 414.74 359.731 414.74 359.731Z" fill="#965450"/>
<path d="M448.128 462.347C448.128 462.347 451.132 468.342 462.454 444.706L464.418 447.819C464.302 447.819 431.261 513.539 448.128 462.347Z" fill="#051F38"/>
<path d="M443.854 409.771C430.452 386.134 414.74 359.731 414.74 359.731C414.74 359.731 384.471 359.962 381.236 370.8C379.157 377.833 408.964 409.655 430.106 431.101C430.221 431.216 438.424 422.108 443.854 409.771Z" fill="#76413B"/>
<path d="M446.51 233.364C446.51 233.364 415.894 199.351 397.987 220.681C380.08 242.011 352.353 312.343 356.396 341.168C358.823 358.117 375.112 376.219 388.167 388.325L377.192 450.125C377.192 450.125 422.248 462.231 419.36 462.231C417.627 462.231 463.839 338.286 468.46 299.084C473.082 259.883 446.51 233.364 446.51 233.364Z" fill="#6633CC"/>
<path opacity="0.2" d="M423.059 240.974C431.608 240.858 440.966 239.705 449.168 236.362C447.551 234.402 446.511 233.364 446.511 233.364C446.511 233.364 415.896 199.351 397.989 220.681C395.216 224.025 392.212 228.406 389.208 233.71C399.26 239.244 411.968 241.204 423.059 240.974Z" fill="#352C38"/>
<path opacity="0.2" d="M377.193 257.461C364.485 286.401 353.741 322.374 356.398 341.053C358.708 357.886 374.883 375.873 387.937 387.979C392.559 356.618 400.992 313.035 406.076 287.9C393.483 280.752 383.085 270.49 377.193 257.461Z" fill="#352C38"/>
<path d="M358.131 165.337L339.646 201.08C339.646 201.08 307.298 183.209 302.676 183.209C298.055 183.209 276.105 183.785 286.502 188.397C286.502 188.397 281.881 191.279 287.08 192.432C287.08 192.432 282.459 196.468 288.235 197.044L301.521 196.468C301.521 196.468 328.093 220.681 341.379 224.139C354.665 227.598 376.038 182.632 376.038 182.632L358.131 165.337Z" fill="#965450"/>
<path d="M361.135 190.934C364.023 191.972 367.027 193.01 370.031 194.047C373.728 187.591 376.038 182.517 376.038 182.517L358.131 165.223L347.964 184.823C352.008 187.36 356.514 189.32 361.135 190.934Z" fill="#76413B"/>
<path d="M381.236 148.043C381.236 148.043 363.907 145.161 357.552 154.385C351.198 163.608 348.31 178.597 348.31 178.597L373.149 190.704L381.236 148.043Z" fill="#34CB79"/>
<path opacity="0.1" d="M371.648 180.673C365.294 175.715 358.015 169.489 353.279 161.994C349.813 170.065 348.195 178.482 348.195 178.482L373.034 190.588L374.536 182.748C373.612 182.172 372.572 181.48 371.648 180.673Z" fill="#161826"/>
<path d="M259.699 178.943C260.392 180.788 259.353 182.863 257.504 183.555L243.872 188.513C242.023 189.205 239.944 188.167 239.25 186.322L233.821 171.218C233.127 169.373 234.167 167.298 236.016 166.606L249.648 161.648C251.497 160.957 253.576 161.994 254.269 163.839L259.699 178.943Z" fill="#23173B"/>
<path d="M270.674 167.644L227.928 182.979C220.419 185.63 216.607 193.932 219.264 201.426L232.434 237.976C235.091 245.47 243.409 249.275 250.919 246.623L293.665 231.289C301.174 228.637 304.987 220.335 302.33 212.841L289.159 176.291C286.387 168.797 278.184 164.877 270.674 167.644ZM298.171 216.185C299.21 219.182 297.708 222.526 294.705 223.564L276.335 172.832C279.339 171.795 282.69 173.294 283.729 176.291L298.171 216.185Z" fill="#322153"/>
<path d="M256.926 163.608C257.504 165.223 256.695 167.067 255.078 167.644L235.669 174.677C234.051 175.254 232.203 174.447 231.625 172.832L230.008 168.336C229.43 166.722 230.239 164.877 231.856 164.3L251.265 157.267C252.883 156.691 254.731 157.498 255.309 159.112L256.926 163.608Z" fill="#6633CC"/>
<path d="M284.191 185.515C284.191 185.515 291.47 182.979 292.741 184.477C293.896 185.861 286.618 187.936 286.964 188.052C287.195 188.167 294.82 186.438 295.513 188.052C296.207 189.666 287.426 192.548 287.426 192.548C287.426 192.548 295.744 190.242 296.322 191.972C296.9 193.701 287.657 196.238 287.657 196.238L287.195 192.433L286.618 188.052L284.191 185.515Z" fill="#965450"/>
<path d="M294.474 183.555C294.474 183.555 288.813 179.75 288.813 178.482C288.697 177.098 303.832 183.44 303.832 183.44L294.474 183.555Z" fill="#965450"/>
<path d="M406.075 145.161C404.92 147.236 410.581 98.9263 410.581 98.9263L384.356 116.567C384.356 116.567 386.666 147.467 383.778 147.582C382.623 147.582 378.117 149.312 373.149 151.156C374.305 156.921 376.615 158.189 378.579 163.724C393.252 163.609 409.195 163.263 418.206 149.888C413.007 148.159 407.577 142.278 406.075 145.161Z" fill="#76413B"/>
<path d="M381.236 148.043L380.081 144.008L408.964 137.666L410.119 144.584C410.119 144.584 444.778 156.114 449.399 182.056C454.02 207.998 451.71 224.717 446.511 233.364C446.511 233.364 406.075 239.129 388.746 230.482C371.416 221.834 353.509 157.267 362.752 151.502C371.994 145.737 381.236 148.043 381.236 148.043Z" fill="#34CB79"/>
<path opacity="0.1" d="M419.015 219.874C405.151 219.067 388.168 217.453 376.615 208.921C374.42 207.307 372.456 205.577 370.608 203.617C375.807 216.415 382.276 227.253 388.746 230.482C406.076 239.129 446.511 233.364 446.511 233.364C448.822 229.559 450.555 224.14 451.363 216.992C440.966 220.105 430.106 220.566 419.015 219.874Z" fill="#161826"/>
<path d="M417.628 199.927L447.088 197.621C447.088 197.621 439.579 249.505 430.914 267.377C422.25 285.248 382.392 355.58 397.988 316.378C397.988 316.378 377.771 346.933 395.1 315.802C395.1 315.802 376.038 340.591 392.789 314.073C392.789 314.073 373.149 336.556 393.945 304.849C393.945 304.849 378.348 312.343 395.678 299.66L412.43 255.847L417.628 199.927Z" fill="#965450"/>
<path d="M446.395 201.772C446.858 199.12 447.089 197.506 447.089 197.506L417.628 199.812L417.396 202.81C426.985 202.81 436.691 202.349 446.395 201.772Z" fill="#76413B"/>
<path d="M386.782 67.9108C386.782 67.9108 401.455 59.3787 422.943 73.4451C437.153 82.7843 436.46 112.647 405.729 132.247C369.222 155.538 386.782 67.9108 386.782 67.9108Z" fill="#051F38"/>
<path d="M407.116 83.8221C407.116 83.8221 390.595 71.0239 376.5 77.2501C358.709 85.321 360.557 104.114 360.21 120.141C359.748 141.471 376.616 145.507 381.699 145.737C389.208 146.198 419.824 144.354 407.116 83.8221Z" fill="#965450"/>
<path d="M408.733 103.769C408.733 103.769 409.426 100.54 414.972 103.077C422.019 106.42 418.207 123.254 410.35 122.793C402.379 122.447 408.733 103.769 408.733 103.769Z" fill="#965450"/>
<path d="M408.732 103.769C408.732 103.769 409.657 115.298 406.999 115.414C404.227 115.529 401.338 94.5449 408.963 94.5449C416.588 94.7755 408.732 103.769 408.732 103.769Z" fill="#051F38"/>
<path d="M408.733 103.769C408.733 103.769 403.072 78.1723 369.453 82.4383C369.453 82.4383 374.305 72.8685 384.934 68.3719C399.375 62.2611 420.979 86.8197 414.971 103.077C414.971 103.077 412.199 103.423 408.733 103.769Z" fill="#34CB79"/>
<path d="M422.943 80.1323C422.943 80.1323 421.094 49.5782 428.488 49.5782C435.882 49.5782 427.91 75.2898 427.91 75.2898C427.91 75.2898 434.034 38.5096 451.825 44.0439C469.617 49.5782 438.886 75.2898 438.886 75.2898C438.886 75.2898 452.98 62.3764 457.948 66.7577C462.8 71.0237 437.73 79.6711 437.73 79.6711C437.73 79.6711 456.793 74.1368 459.219 83.3607C461.645 92.4692 422.365 91.201 422.943 80.1323Z" fill="#051F38"/>
<path d="M361.134 97.8889C361.134 97.8889 361.134 97.6583 361.365 97.1971C361.596 96.7359 361.827 96.1594 362.405 95.5829C362.983 95.0064 363.676 94.3146 364.6 93.8534C364.831 93.7381 365.062 93.6228 365.409 93.5075C365.64 93.3922 365.987 93.2769 366.218 93.2769C366.564 93.2769 366.795 93.1616 367.142 93.1616H368.066C368.644 93.1616 369.221 93.3922 369.799 93.6228C370.377 93.8534 370.839 94.084 371.301 94.4299C371.763 94.7758 372.11 95.1217 372.456 95.4676C372.803 95.8135 373.034 96.1594 373.149 96.5053C373.265 96.6206 373.38 96.8512 373.38 96.9665C373.496 97.0818 373.496 97.3124 373.611 97.4277C373.727 97.7736 373.843 98.0042 373.843 98.2348C373.958 98.6959 373.958 98.9265 373.958 98.9265C373.958 98.9265 373.727 98.8112 373.265 98.696C373.034 98.5807 372.803 98.4653 372.572 98.3501C372.341 98.2348 371.994 98.1195 371.647 97.8889C371.301 97.7736 371.07 97.543 370.723 97.4277C370.377 97.3124 370.03 97.1971 369.683 97.0818C369.337 96.9665 368.99 96.8512 368.644 96.7359C368.297 96.7359 367.951 96.6206 367.604 96.6206H367.142C367.026 96.6206 366.795 96.6206 366.564 96.6206C366.218 96.6206 365.871 96.7359 365.524 96.7359C365.178 96.8512 364.831 96.8512 364.485 96.9665C364.138 97.0818 363.791 97.0818 363.445 97.1971C362.752 97.4277 362.174 97.543 361.827 97.6583C361.481 97.8889 361.134 97.8889 361.134 97.8889Z" fill="#051F38"/>
<path d="M370.03 129.595C370.03 129.595 388.977 130.172 390.247 129.941C391.403 129.711 379.619 138.935 370.03 129.595Z" fill="white"/>
<path d="M371.301 108.496C371.301 108.496 371.301 108.726 371.185 109.188C371.07 109.649 370.954 110.225 370.723 111.032C370.608 111.378 370.492 111.839 370.261 112.185C370.145 112.416 370.03 112.647 369.914 112.762C369.799 112.992 369.568 113.223 369.452 113.338C369.106 113.684 368.759 114.145 368.181 114.376C368.066 114.491 367.95 114.491 367.719 114.607L367.373 114.722C367.142 114.837 366.795 114.837 366.449 114.837C365.871 114.837 365.178 114.722 364.716 114.261C364.253 113.915 363.907 113.454 363.676 112.877C363.445 112.416 363.329 111.955 363.214 111.494C363.098 111.032 363.098 110.571 363.098 110.225C363.098 109.418 363.098 108.842 363.214 108.381C363.329 107.919 363.445 107.689 363.445 107.689C363.445 107.689 363.445 108.726 363.791 110.225C363.907 110.917 364.138 111.839 364.6 112.531C364.831 112.877 365.062 113.223 365.409 113.454C365.755 113.684 366.102 113.8 366.449 113.8C366.68 113.8 366.795 113.8 367.026 113.684L367.373 113.569C367.373 113.569 367.488 113.454 367.604 113.454C367.95 113.338 368.297 112.992 368.644 112.762C368.99 112.416 369.221 112.07 369.452 111.724C369.683 111.378 369.914 111.032 370.03 110.686C370.377 109.995 370.608 109.418 370.839 109.072C371.185 108.726 371.301 108.496 371.301 108.496Z" fill="#1F2733"/>
<path d="M390.363 109.995C390.363 109.995 390.363 110.225 390.248 110.686C390.132 111.148 390.017 111.724 389.786 112.531C389.67 112.877 389.555 113.338 389.323 113.684C389.208 113.915 389.092 114.145 388.977 114.261C388.861 114.491 388.63 114.722 388.515 114.837C388.168 115.183 387.822 115.644 387.244 115.875C387.128 115.99 387.013 115.99 386.782 116.106L386.435 116.221C386.204 116.336 385.858 116.336 385.511 116.336C384.933 116.336 384.24 116.221 383.778 115.76C383.316 115.414 382.969 114.953 382.738 114.376C382.507 113.915 382.392 113.454 382.276 112.992C382.161 112.531 382.161 112.07 382.161 111.724C382.161 110.917 382.161 110.341 382.276 109.879C382.392 109.418 382.507 109.188 382.507 109.188C382.507 109.188 382.507 110.225 382.854 111.724C382.969 112.416 383.2 113.338 383.663 114.03C383.894 114.376 384.125 114.722 384.471 114.953C384.818 115.183 385.164 115.298 385.511 115.298C385.742 115.298 385.858 115.298 386.089 115.183L386.435 115.068C386.435 115.068 386.551 114.953 386.666 114.953C387.013 114.837 387.359 114.491 387.706 114.261C388.053 113.915 388.284 113.569 388.515 113.223C388.746 112.877 388.977 112.531 389.092 112.185C389.439 111.494 389.67 110.917 389.901 110.571C390.248 110.225 390.363 109.995 390.363 109.995Z" fill="#1F2733"/>
<path d="M411.39 119.565C411.736 119.103 411.967 118.757 412.198 118.296C412.429 117.835 412.545 117.374 412.66 116.913C412.66 116.682 412.66 116.451 412.66 116.221C412.66 116.106 412.545 115.99 412.545 115.99C412.545 115.875 412.429 115.76 412.314 115.76C412.198 115.644 412.198 115.644 412.083 115.529L411.852 115.298C411.736 115.183 411.621 115.183 411.505 115.183L411.159 115.068L410.927 114.953V114.722C410.581 113.454 410.465 112.301 410.35 111.032C410.234 110.456 410.234 109.764 410.35 109.188C410.35 108.496 410.465 107.919 410.696 107.228C410.812 106.882 411.043 106.536 411.39 106.305C411.736 106.075 412.198 105.844 412.545 105.959C413.007 105.959 413.238 106.075 413.585 106.19C413.931 106.305 414.278 106.421 414.509 106.651C414.74 106.882 415.087 107.112 415.202 107.343C415.433 107.574 415.549 107.919 415.664 108.15C415.895 108.726 416.011 109.418 415.895 109.995C415.78 109.418 415.664 108.842 415.318 108.265C415.202 108.035 414.971 107.804 414.74 107.573C414.509 107.343 414.278 107.228 414.047 107.112C413.816 106.997 413.585 106.882 413.238 106.882C413.007 106.882 412.66 106.766 412.429 106.766C411.967 106.766 411.736 107.112 411.621 107.573C411.274 108.611 411.39 109.764 411.39 110.917C411.505 112.07 411.621 113.338 411.852 114.491L411.621 114.146L411.967 114.376C412.083 114.491 412.198 114.491 412.314 114.607L412.66 114.837C412.776 114.953 412.891 115.068 413.007 115.183C413.123 115.299 413.238 115.414 413.238 115.644C413.354 115.76 413.354 115.99 413.354 116.106C413.469 116.451 413.354 116.682 413.354 117.028C413.238 117.604 412.891 118.066 412.545 118.527C412.198 118.873 411.736 119.334 411.39 119.565Z" fill="#76413B"/>
<path d="M373.034 124.407C372.456 124.522 371.994 124.522 371.532 124.522C371.07 124.522 370.608 124.407 370.261 124.292C369.799 124.176 369.452 123.946 369.106 123.831C368.875 123.715 368.759 123.6 368.528 123.485C368.297 123.369 368.182 123.254 367.951 123.139L367.257 122.562L367.373 122.101C368.528 118.757 369.683 115.529 370.839 112.301C371.994 109.072 373.265 105.729 374.536 102.5C373.727 105.844 372.803 109.303 371.994 112.647C371.07 115.99 370.146 119.334 369.221 122.678L368.759 121.64C368.99 121.64 369.221 121.755 369.452 121.755C369.683 121.755 369.915 121.87 370.03 121.986C370.377 122.101 370.839 122.332 371.185 122.562C371.532 122.793 371.879 123.139 372.225 123.485C372.456 123.6 372.803 123.946 373.034 124.407Z" fill="#76413B"/>
<path d="M379.85 96.5048C379.85 96.5048 379.966 96.1589 380.312 95.813C380.543 95.5824 380.659 95.3518 381.005 95.0059C381.352 94.7753 381.583 94.4294 382.045 94.1988C382.392 93.9682 382.854 93.6223 383.431 93.3917C383.894 93.1611 384.471 92.9305 385.049 92.6999C385.627 92.5846 386.32 92.354 387.013 92.354C387.36 92.354 387.706 92.354 388.053 92.354L389.092 92.4693C389.786 92.4693 390.479 92.8152 391.056 92.9305C391.634 93.1611 392.212 93.507 392.789 93.7376C393.367 94.0835 393.829 94.4294 394.176 94.7753C394.638 95.1212 394.984 95.5824 395.216 95.9283C395.562 96.2742 395.793 96.6201 396.024 96.966C396.255 97.3119 396.371 97.6578 396.486 97.8884C396.717 98.3496 396.833 98.6955 396.833 98.6955C396.833 98.6955 396.486 98.5802 396.024 98.3496C395.793 98.2343 395.447 98.119 395.1 97.8884C394.753 97.6578 394.407 97.5425 393.945 97.4272C393.598 97.3119 393.136 97.0813 392.674 96.8507C392.212 96.7354 391.75 96.5048 391.288 96.3895C390.825 96.2742 390.363 96.1589 389.901 96.0436C389.439 96.0436 388.977 95.813 388.399 95.813L387.706 95.6977H387.013C386.551 95.6977 385.973 95.6977 385.511 95.6977C385.049 95.6977 384.587 95.6977 384.125 95.813C383.663 95.813 383.2 95.9283 382.738 95.9283C381.93 96.0436 381.121 96.1589 380.659 96.2742C380.197 96.5048 379.85 96.5048 379.85 96.5048Z" fill="#051F38"/>
<path d="M363.907 490.825C363.907 494.976 360.557 498.435 356.398 498.55C352.239 498.55 348.773 495.207 348.657 491.056L348.311 466.613C348.311 462.462 351.661 459.003 355.82 458.888C359.979 458.888 363.445 462.231 363.56 466.382L363.907 490.825Z" fill="#091E1D"/>
<path d="M257.504 492.095C257.504 496.245 254.154 499.704 249.995 499.82C245.836 499.82 242.37 496.476 242.254 492.325L241.908 467.882C241.908 463.731 245.258 460.272 249.417 460.157C253.576 460.157 257.042 463.501 257.158 467.651L257.504 492.095Z" fill="#091E1D"/>
<path d="M355.358 473.415C355.473 482.87 347.848 490.595 338.375 490.71L267.209 491.517C257.735 491.633 249.995 484.023 249.879 474.568L242.254 312.92C242.139 303.466 249.764 295.741 259.237 295.625L341.841 294.588C351.314 294.472 359.055 302.082 359.17 311.536L355.358 473.415Z" fill="#34CB79"/>
<path opacity="0.1" d="M358.708 327.793L359.055 311.767C358.939 302.313 351.199 294.703 341.725 294.818L259.121 295.856C249.648 295.971 242.023 303.696 242.139 313.151L242.947 329.177L358.708 327.793Z" fill="#161826"/>
<path d="M372.803 307.732C372.803 310.383 370.723 312.459 368.066 312.574L233.127 314.188C230.47 314.188 228.391 312.113 228.275 309.461L228.044 292.397C228.044 289.745 230.123 287.67 232.781 287.554L367.719 285.94C370.377 285.94 372.456 288.016 372.572 290.667L372.803 307.732Z" fill="#34CB79"/>
<path d="M301.174 355.119L316.886 345.665L313.074 355.465L301.174 355.119Z" fill="white"/>
<path d="M295.283 340.246C295.283 340.246 296.554 340.246 298.518 343.243C300.482 346.241 304.872 354.312 304.872 354.312L312.843 350.738L314.692 347.625C314.692 347.625 311.226 340.707 308.453 340.246H295.283Z" fill="white"/>
<path d="M290.892 342.321C290.892 342.321 293.318 339.669 295.282 341.053C297.246 342.437 300.712 348.202 300.712 348.202L295.051 358.117L284.885 352.468L290.892 342.321Z" fill="white"/>
<path d="M308.338 367.456L309.146 385.673L302.33 377.718L308.338 367.456Z" fill="white"/>
<path d="M324.281 369.301C324.281 369.301 323.702 370.454 320.12 370.8C316.539 371.146 307.297 371.146 307.297 371.146L306.604 379.908L308.453 383.021C308.453 383.021 316.193 383.367 317.926 381.061L324.281 369.301Z" fill="white"/>
<path d="M324.396 364.458C324.396 364.458 325.667 367.802 323.472 368.955C321.392 369.993 314.576 370.223 314.576 370.223L308.453 360.538L318.273 354.197L324.396 364.458Z" fill="white"/>
<path d="M294.472 367.226L278.298 358.693L288.696 356.849L294.472 367.226Z" fill="white"/>
<path d="M284.885 380.024C284.885 380.024 284.192 378.986 285.694 375.758C287.195 372.529 291.817 364.574 291.817 364.574L284.654 359.616L281.072 359.731C281.072 359.731 276.913 366.303 277.953 368.84L284.885 380.024Z" fill="white"/>
<path d="M288.928 382.56C288.928 382.56 285.347 381.868 285.578 379.562C285.694 377.141 288.928 371.261 288.928 371.261L300.366 370.915L300.828 382.56H288.928Z" fill="white"/>
<path d="M53.2471 445.167C53.2471 445.167 50.7061 485.868 48.5111 486.675C40.0771 489.557 -23.5799 505.699 36.6111 478.604L34.9941 448.972L53.2471 445.167Z" fill="#051F38"/>
<path d="M50.5901 476.759C52.0921 464.422 53.2472 445.167 53.2472 445.167L34.9941 448.972L36.4962 475.376C41.0012 476.644 46.2001 476.759 50.5901 476.759Z" fill="#041523"/>
<path d="M11.079 492.786C9.23099 497.282 42.503 488.75 48.511 486.675C48.626 486.56 48.857 486.329 49.088 485.752C41.579 487.828 18.82 493.016 11.079 492.786Z" fill="white"/>
<path d="M92.1807 442.977C92.1807 442.977 95.5317 483.677 97.8417 484.369C106.391 487.136 170.279 502.01 109.511 476.067L110.55 446.436L92.1807 442.977Z" fill="#051F38"/>
<path d="M95.5317 474.453C93.7987 462.232 92.1807 442.977 92.1807 442.977L110.55 446.436L109.626 472.839C105.12 474.223 99.9217 474.338 95.5317 474.453Z" fill="#041523"/>
<path d="M135.389 489.788C137.353 494.284 103.85 486.329 97.8416 484.369C97.6106 484.369 97.4956 484.023 97.2646 483.446C104.774 485.522 127.649 490.249 135.389 489.788Z" fill="white"/>
<path d="M103.387 223.218C103.387 223.218 120.023 357.31 116.673 465.806C116.673 465.806 96.802 471.34 91.603 467.305C87.097 441.593 87.675 391.554 80.974 354.427C74.62 319.377 72.079 290.667 72.079 290.667L69.999 288.361C69.999 288.361 56.366 457.85 53.363 470.764C36.149 474.799 30.719 470.072 30.719 470.072C30.719 470.072 22.863 258.038 27.715 223.794C33.954 179.059 103.387 223.218 103.387 223.218Z" fill="#34CB79"/>
<path opacity="0.1" d="M106.39 251.004C104.657 233.709 103.27 223.333 103.27 223.333C103.27 223.333 33.9531 179.173 27.5981 223.909C27.0211 228.06 26.6741 234.862 26.3281 243.51C31.5261 246.392 96.4541 255.616 106.39 251.004Z" fill="#161826"/>
<path opacity="0.1" d="M70.8076 286.978C71.6156 296.086 75.7746 325.488 80.9736 354.427C87.6746 391.669 87.0966 441.593 91.6026 467.305C96.8016 471.34 116.673 465.806 116.673 465.806C118.637 399.048 113.207 322.605 108.586 273.719C97.6106 280.636 83.6306 283.98 70.8076 286.978Z" fill="#161826"/>
<path d="M76.7004 105.959C76.8154 91.893 77.8554 73.3299 77.8554 73.3299L50.1284 65.7202C50.1284 65.7202 51.0524 90.8553 51.8614 106.19C39.2684 110.456 24.9424 118.527 24.9424 118.527L77.2774 131.786L95.8784 113.8C95.8784 113.8 86.5204 109.072 76.7004 105.959Z" fill="#FFB39F"/>
<path d="M76.7004 105.959C76.8154 91.893 77.8554 73.3299 77.8554 73.3299L50.1284 65.7202C50.1284 65.7202 51.0524 90.8553 51.8614 106.19C39.2684 110.456 24.9424 118.527 24.9424 118.527L77.2774 131.786L102.001 110.571C102.001 110.571 86.6354 104.806 76.7004 105.959Z" fill="#E09B8D"/>
<path d="M47.7018 39.0864C47.7018 39.0864 54.9798 15.5655 74.1578 19.2551C93.3358 22.9446 96.1088 47.9644 98.5348 64.798C100.961 81.7467 95.5308 96.9662 80.5118 98.811C67.4568 100.425 44.6978 97.8886 47.7018 39.0864Z" fill="#FFB39F"/>
<path d="M48.6257 58.8021C48.6257 58.8021 47.4707 55.6891 42.7337 59.148C36.7257 63.5294 42.8487 79.6711 50.1277 77.9417C57.4057 76.2122 48.6257 58.8021 48.6257 58.8021Z" fill="#FFB39F"/>
<path d="M41.9252 25.5963C42.3872 25.481 51.3992 24.7892 45.3912 25.3657C50.9362 31.3612 50.3592 32.8601 57.9842 34.2436C62.0272 46.6959 54.0562 54.1903 54.0562 54.1903L56.2512 69.1791L50.4742 69.7556C50.4742 69.7556 50.5902 59.3787 46.2002 58.4563C41.8102 57.5339 40.5392 62.8377 40.5392 62.8377C31.4122 51.3078 22.1692 28.7093 41.9252 25.5963Z" fill="#051F38"/>
<path d="M94.2596 17.1795C97.9566 8.07089 91.7186 0 91.7186 0C92.7576 3.34366 92.2956 6.45671 91.2556 8.99328C90.5626 6.45671 89.2916 3.68955 86.9816 0.922387C86.9816 0.922387 87.6746 10.1463 75.0816 8.99328C62.4886 7.84029 40.4226 9.56977 39.4986 29.0552C38.4586 48.5407 57.2906 34.3589 57.2906 34.3589C57.2906 34.3589 94.8376 44.8511 100.268 14.6429L94.2596 17.1795Z" fill="#051F38"/>
<path d="M76.469 50.8476C76.469 50.8476 76.122 50.8476 75.66 50.7323C75.082 50.617 74.389 50.5017 73.581 50.3864C73.118 50.2711 72.772 50.2711 72.31 50.2711C71.848 50.1558 71.386 50.1558 70.923 50.1558C70.461 50.1558 69.999 50.1558 69.421 50.1558C69.19 50.1558 68.959 50.1558 68.728 50.1558L68.035 50.2711C67.573 50.2711 67.111 50.3864 66.533 50.5017C66.071 50.617 65.609 50.7323 65.147 50.8476C64.685 50.9629 64.223 51.1935 63.761 51.3088C63.298 51.4241 62.952 51.6547 62.49 51.77C62.143 51.8853 61.681 52.0006 61.45 52.2312C61.103 52.3465 60.872 52.4618 60.641 52.5771C60.179 52.8077 59.833 52.923 59.833 52.923C59.833 52.923 59.948 52.5771 60.179 52.1159C60.295 51.8853 60.41 51.5394 60.641 51.1935C60.872 50.8476 61.103 50.5017 61.45 50.1558C61.797 49.8099 62.028 49.3487 62.49 49.0028C62.952 48.6569 63.414 48.311 63.992 47.9651C64.569 47.7345 65.147 47.3886 65.725 47.158C66.418 46.9274 66.995 46.8121 67.689 46.6968L68.728 46.5815C69.075 46.5815 69.422 46.5815 69.768 46.6968C70.115 46.6968 70.461 46.8121 70.692 46.8121C71.039 46.9274 71.27 46.9274 71.617 47.0427C72.194 47.2733 72.772 47.3886 73.234 47.7345C73.696 47.9651 74.158 48.311 74.62 48.5416C74.967 48.7722 75.314 49.1181 75.66 49.3487C75.891 49.5793 76.122 49.9252 76.353 50.0405C76.238 50.5017 76.469 50.8476 76.469 50.8476Z" fill="#051F38"/>
<path d="M95.9932 50.27C95.9932 50.27 95.7621 50.1547 95.3001 50.0394C94.8381 49.9241 94.2602 49.6935 93.6822 49.4629C93.3362 49.3476 92.9892 49.2324 92.6432 49.1171C92.2962 49.0018 91.9491 48.8864 91.6031 48.8864C91.2561 48.8864 90.9101 48.7712 90.5631 48.6559C90.4481 48.6559 90.2162 48.6559 90.1012 48.5406H89.6392C89.2922 48.4253 88.9462 48.6559 88.5992 48.5406C88.2522 48.6559 87.9061 48.6559 87.5591 48.7712C87.2131 48.8865 86.8661 49.0018 86.5201 49.1171C86.1731 49.2324 85.8262 49.3476 85.5952 49.4629C85.2492 49.5782 84.9021 49.6935 84.6711 49.8088C84.4401 49.9241 84.2091 50.0394 83.9781 50.0394C83.5161 50.1547 83.2852 50.27 83.2852 50.27C83.2852 50.27 83.2851 50.0394 83.5161 49.5782C83.6311 49.3476 83.6312 49.117 83.8622 48.7712C83.9782 48.4253 84.2092 48.1947 84.4402 47.8488C84.6712 47.5029 84.9021 47.157 85.2491 46.8111C85.5951 46.4652 86.0571 46.2346 86.4041 45.8887C86.8661 45.6581 87.4442 45.4275 87.9062 45.1969C88.4842 45.0816 89.0612 44.9663 89.6392 44.9663C89.9852 44.9663 90.2161 44.9663 90.5631 44.9663C90.9101 44.9663 91.1412 45.0816 91.3722 45.1969C91.6032 45.1969 91.9491 45.3122 92.1801 45.4275C92.4121 45.5428 92.6431 45.6581 92.8741 45.7734C93.7981 46.3499 94.4912 46.9264 94.9532 47.6182C95.4152 48.31 95.6462 48.8865 95.8772 49.3476C95.9932 50.0394 95.9932 50.27 95.9932 50.27Z" fill="#051F38"/>
<path d="M81.7832 51.5386C82.4762 53.0375 83.1702 54.6517 83.8632 56.1506C84.2092 56.9576 84.4402 57.6494 84.7872 58.4565L85.7112 60.7625L86.6352 63.0685C86.9822 63.8756 87.2132 64.5673 87.5602 65.3744L88.0222 66.5274C88.1372 66.8733 88.3682 67.3345 88.4842 67.6804C88.8312 68.3722 89.1772 69.064 89.5242 69.8711L89.8702 70.7935L89.1772 71.1394C88.1372 71.6006 87.0982 72.177 85.9422 72.6382C84.9032 73.0994 83.7472 73.5606 82.5922 73.9065C83.5162 73.0994 84.4402 72.4076 85.3652 71.7159C86.2892 71.0241 87.3292 70.3323 88.2532 69.6405L87.9062 70.9088C87.4442 70.217 86.9822 69.4099 86.5202 68.7181C86.0582 68.0263 85.7112 67.2192 85.3652 66.4121L84.7872 65.2591L84.3252 64.1062C84.0942 63.2991 83.7472 62.492 83.5162 61.6849L82.8232 59.2636C82.5922 58.4565 82.4762 57.6494 82.2452 56.8423C82.1302 54.9976 81.8992 53.2681 81.7832 51.5386Z" fill="#DD9078"/>
<path d="M48.2791 74.598C47.8171 74.3674 47.3551 74.0216 47.0091 73.5604C46.6621 73.2145 46.2001 72.7533 45.9691 72.1769C45.8531 71.9463 45.7381 71.6003 45.7381 71.2544C45.7381 71.1391 45.7381 70.9085 45.7381 70.7932C45.7381 70.6779 45.8531 70.4473 45.8531 70.332C45.9691 69.9861 46.2001 69.7556 46.4311 69.525C46.5461 69.4097 46.6621 69.2943 46.7771 69.179L47.1241 68.9485L46.8931 69.2944C46.8931 68.0261 46.8931 66.7577 46.7771 65.6047C46.6621 64.3365 46.5461 63.0683 46.0841 62.0306C45.9691 61.8 45.8531 61.5694 45.6221 61.4541C45.5071 61.3388 45.2761 61.2234 45.0451 61.2234C44.9291 61.2234 44.8131 61.2234 44.6981 61.3387C44.5821 61.3387 44.3511 61.4541 44.2361 61.4541C44.0051 61.5694 43.7741 61.6846 43.5431 61.9152C43.3121 62.1458 43.0801 62.2611 42.9651 62.4917C42.8491 62.7223 42.6181 62.9529 42.5031 63.2988C42.2721 63.8753 42.1561 64.4518 42.1561 65.1435C41.9251 64.567 41.9251 63.8754 42.0411 63.1836C42.0411 62.8377 42.1561 62.4917 42.3871 62.2611C42.5031 61.9152 42.7341 61.6847 42.9651 61.4541L43.3121 61.1081L43.7741 60.7622C43.8891 60.6469 44.1201 60.6469 44.2361 60.5316C44.3511 60.4163 44.5821 60.4164 44.8131 60.3011C45.2761 60.1858 45.7381 60.301 46.0841 60.6469C46.4311 60.8775 46.6621 61.2234 46.7771 61.5693C47.1241 62.2611 47.2401 62.8376 47.4711 63.5294C47.5861 64.2212 47.7021 64.7977 47.7021 65.4895C47.8171 66.7578 47.8171 68.026 47.7021 69.4096V69.6402L47.4711 69.7555C47.2401 69.8708 47.0091 69.9861 46.8931 70.2167C46.7771 70.332 46.5461 70.5626 46.4311 70.6779C46.3151 70.7932 46.3151 70.9086 46.3151 71.0239C46.3151 71.1392 46.2001 71.2544 46.2001 71.3697C46.2001 71.6003 46.2001 71.8309 46.2001 72.0614C46.3151 72.5226 46.5461 72.9838 46.8931 73.445C47.5861 73.9062 47.9331 74.2521 48.2791 74.598Z" fill="#DD9078"/>
<path d="M66.417 61.8002C66.417 61.8002 66.533 62.0308 66.649 62.4919C66.764 62.7225 66.764 62.9531 66.88 63.1837C66.995 63.4143 67.111 63.7602 67.342 64.1061C67.457 64.452 67.804 64.6826 67.919 65.0285C68.035 65.1438 68.15 65.2591 68.381 65.4897C68.497 65.605 68.613 65.7203 68.844 65.8356C69.19 66.0662 69.537 66.1815 69.883 66.2968C70.114 66.2968 70.23 66.4121 70.461 66.4121C70.692 66.4121 70.808 66.4121 71.039 66.2968L71.616 66.0662L72.194 65.7203C72.541 65.4897 72.772 65.1438 73.003 64.7979C73.234 64.452 73.349 64.1061 73.58 63.7602C73.696 63.4143 73.811 63.0684 73.811 62.6072C73.811 62.2613 73.811 61.9154 73.927 61.6849C73.927 61.339 73.927 61.1084 73.927 60.8778C73.927 60.4166 73.927 60.186 73.927 60.186C73.927 60.186 74.042 60.4166 74.158 60.8778C74.274 61.1084 74.274 61.339 74.389 61.6849C74.389 62.0307 74.505 62.3766 74.505 62.7225C74.505 63.0684 74.505 63.5296 74.389 63.9908C74.274 64.452 74.158 64.9132 73.927 65.3744C73.696 65.8356 73.349 66.2968 72.887 66.6427L72.194 67.1039C71.963 67.2192 71.616 67.3345 71.385 67.4498C71.154 67.4498 70.808 67.5651 70.461 67.5651C70.23 67.5651 69.883 67.4498 69.652 67.4498C69.075 67.3345 68.613 66.9886 68.15 66.6427C67.688 66.2968 67.457 65.8356 67.226 65.4897C66.995 65.0285 66.764 64.6826 66.649 64.3367C66.533 63.9908 66.417 63.6449 66.417 63.299C66.417 62.9531 66.417 62.7225 66.417 62.4919C66.417 62.0308 66.417 61.8002 66.417 61.8002Z" fill="#1F2733"/>
<path d="M87.3291 58.3412C87.3291 58.3412 87.4441 58.5718 87.5601 59.033C87.6751 59.2636 87.6751 59.4942 87.7911 59.7248C87.9061 59.9554 88.0221 60.3013 88.2531 60.6472C88.3681 60.9931 88.7151 61.2237 88.8311 61.5696C88.9461 61.6849 89.0621 61.8002 89.2931 62.0308C89.4081 62.1461 89.5241 62.2614 89.7551 62.3767C90.1011 62.6073 90.4481 62.7226 90.7951 62.8379C91.0261 62.8379 91.1411 62.9532 91.3721 62.9532C91.6031 62.9532 91.7191 62.9532 91.9501 62.8379L92.5271 62.6073L93.1051 62.2614C93.4521 62.0308 93.6831 61.6849 93.9141 61.339C94.1451 60.9931 94.2601 60.6472 94.4911 60.3013C94.6071 59.9554 94.7231 59.6095 94.7231 59.1483C94.7231 58.8024 94.7231 58.4565 94.8381 58.2259C94.8381 57.88 94.8381 57.6494 94.8381 57.4188C94.8381 56.9576 94.8381 56.7271 94.8381 56.7271C94.8381 56.7271 94.9541 56.9576 95.0691 57.4188C95.1851 57.6494 95.1851 57.88 95.3001 58.2259C95.3001 58.5718 95.4161 58.9177 95.4161 59.2636C95.4161 59.6095 95.4161 60.0707 95.3001 60.5319C95.1851 60.9931 95.0691 61.4543 94.8381 61.9155C94.6071 62.3767 94.2601 62.8379 93.7981 63.1838L93.1051 63.645C92.8741 63.7603 92.5271 63.8756 92.2961 63.9908C92.0651 63.9908 91.7191 64.1062 91.3721 64.1062C91.1411 64.1062 90.7951 63.9908 90.5631 63.9908C89.9861 63.8756 89.5241 63.5297 89.0621 63.1838C88.5991 62.8379 88.3681 62.3767 88.1371 62.0308C87.9061 61.5696 87.6751 61.2237 87.5601 60.8778C87.4441 60.5319 87.3291 60.186 87.3291 59.8401C87.3291 59.4942 87.3291 59.2636 87.3291 59.033C87.3291 58.5718 87.3291 58.3412 87.3291 58.3412Z" fill="#1F2733"/>
<path d="M68.2374 78.1035C68.2374 78.1035 68.1214 78.1035 68.2374 78.2188C68.3524 78.3341 68.5834 78.4494 68.8154 78.5647C69.2774 78.9106 70.0854 79.2565 71.0104 79.7177C71.9344 80.1789 73.0894 80.6401 74.2444 80.9859C74.8224 81.2165 75.5154 81.3318 76.0934 81.4471C76.6714 81.5624 77.3644 81.6777 78.0574 81.793C79.3284 81.9083 80.5994 82.0236 81.8694 81.9083C83.1404 81.793 84.1804 81.5624 85.2204 81.2165C86.1444 80.8706 86.9534 80.6401 87.5304 80.4095C88.1084 80.1789 88.4554 80.0636 88.4554 80.0636C88.4554 80.0636 88.2244 80.4095 87.7614 80.7553C87.2994 81.2165 86.6064 81.793 85.6824 82.3695C84.7584 82.946 83.4874 83.5225 82.1004 83.7531C80.7144 84.099 79.2124 84.099 77.7104 83.9837C77.0174 83.8684 76.2084 83.7531 75.5154 83.5225C74.8224 83.2919 74.1294 83.0613 73.5514 82.7154C72.2804 82.1389 71.2414 81.4471 70.4324 80.7553C69.6234 80.0636 68.9304 79.3718 68.5834 78.7953C68.3524 78.5647 68.2374 78.3341 68.2374 78.1035C68.1214 78.2188 68.1214 78.1035 68.2374 78.1035Z" fill="#DD9078"/>
<path d="M86.2891 105.613C86.2891 105.613 115.865 102.5 119.677 125.099C123.49 147.813 123.143 153.923 123.143 153.923L94.261 149.657L86.2891 105.613Z" fill="#6633CC"/>
<path d="M111.242 123.83C109.509 109.417 94.8368 106.304 86.2878 105.612C82.4748 110.916 77.1608 114.721 69.8828 114.952C61.5638 115.182 53.9388 112.3 49.8958 105.958C36.9568 107.457 24.1327 111.147 21.2437 119.909C15.1207 138.357 20.4358 239.82 20.4358 239.82C20.4358 239.82 72.1928 248.698 114.708 240.627C114.593 240.742 113.553 143.084 111.242 123.83Z" fill="#6633CC"/>
<path opacity="0.2" d="M18.2422 169.258C18.4732 202.695 20.4372 239.936 20.4372 239.936C20.4372 239.936 72.1942 248.814 114.709 240.743C114.709 240.743 113.9 166.606 112.167 134.784C80.8592 146.429 49.5502 157.959 18.2422 169.258Z" fill="#352C38"/>
<path d="M50.1265 196.007C50.1265 196.007 48.9715 192.664 54.2855 190.473C59.6005 188.282 114.362 173.985 117.828 174.447C121.293 174.908 163.693 179.981 164.386 182.287C165.079 184.593 113.668 201.196 113.668 201.196L50.1265 196.007Z" fill="#E1EDFF"/>
<path d="M116.557 205.577C116.557 205.577 56.5972 205.347 51.9762 199.928C47.3552 194.509 47.2391 190.588 73.4651 195.2C99.6901 199.812 114.824 199.12 114.824 199.12C114.824 199.12 162.885 176.753 164.502 182.172C166.004 187.706 171.087 186.322 116.557 205.577Z" fill="#C0D5FF"/>
<path d="M164.387 182.287C162.885 176.868 114.709 199.236 114.709 199.236C114.709 199.236 114.593 199.236 114.247 199.236C115.286 201.311 116.095 203.271 117.019 205.462C171.087 186.322 166.004 187.706 164.387 182.287Z" fill="#B1C5E8"/>
<path d="M48.3943 183.67C48.3943 183.67 47.2383 180.327 52.5533 178.136C57.8673 175.945 112.628 161.648 116.094 162.11C119.56 162.571 161.959 167.644 162.653 169.95C163.346 172.256 111.935 188.859 111.935 188.859L48.3943 183.67Z" fill="#E1EDFF"/>
<path d="M114.824 193.356C114.824 193.356 54.8638 193.125 50.2428 187.706C45.6218 182.287 45.5058 178.367 71.7308 182.979C97.9568 187.591 113.091 186.899 113.091 186.899C113.091 186.899 161.151 164.531 162.769 169.95C164.155 175.369 169.354 173.985 114.824 193.356Z" fill="#C0D5FF"/>
<path d="M162.654 170.065C161.152 164.646 112.976 187.014 112.976 187.014C112.976 187.014 112.86 187.014 112.514 187.014C113.553 189.09 114.362 191.05 115.286 193.24C169.239 173.985 164.155 175.369 162.654 170.065Z" fill="#B1C5E8"/>
<path d="M48.1629 173.639C48.1629 173.639 47.1229 170.757 52.2059 168.797C57.2899 166.837 110.318 154.269 113.668 154.73C117.019 155.192 158.032 159.688 158.725 161.648C159.418 163.608 109.625 178.367 109.625 178.367L48.1629 173.639Z" fill="#E1EDFF"/>
<path d="M112.398 182.172C112.398 182.172 54.4018 181.941 49.8968 177.214C45.3908 172.486 45.3908 169.027 70.6918 173.063C95.9928 177.098 110.665 176.522 110.665 176.522C110.665 176.522 157.224 156.806 158.726 161.648C160.228 166.376 165.195 165.107 112.398 182.172Z" fill="#C0D5FF"/>
<path d="M158.726 161.648C157.224 156.921 110.665 176.522 110.665 176.522C110.665 176.522 110.55 176.522 110.203 176.522C111.127 178.251 112.052 180.096 112.86 181.941C165.195 165.107 160.228 166.376 158.726 161.648Z" fill="#B1C5E8"/>
<path d="M49.7803 160.15C49.7803 160.15 48.8563 157.267 54.0553 155.422C59.2543 153.693 112.629 143.085 115.979 143.662C119.329 144.123 160.111 150.234 160.689 152.194C161.267 154.154 111.011 166.952 111.011 166.952L49.7803 160.15Z" fill="white"/>
<path d="M113.669 171.102C113.669 171.102 55.6733 168.681 51.3993 163.838C47.1243 158.88 47.1244 155.537 72.3094 160.494C97.4954 165.452 112.167 165.452 112.167 165.452C112.167 165.452 159.419 147.581 160.69 152.308C162.076 157.035 167.044 155.998 113.669 171.102Z" fill="#C0D5FF"/>
<path d="M160.69 152.309C159.419 147.467 112.167 165.453 112.167 165.453C112.167 165.453 112.052 165.453 111.705 165.453C112.629 167.298 113.438 169.143 114.131 170.988C166.928 155.999 161.961 157.036 160.69 152.309Z" fill="#B1C5E8"/>
<path d="M19.6279 162.34L48.1639 155.422C48.1639 155.422 54.2869 196.93 55.9039 199.236C57.5219 201.542 105.236 203.848 105.236 203.848L119.099 204.655C119.099 204.655 60.5249 229.213 43.6579 219.298C26.5599 209.151 19.6279 162.34 19.6279 162.34Z" fill="#FFB39F"/>
<path d="M22.4009 167.298C31.1809 164.646 39.7299 161.418 48.7409 159.458C48.3949 156.921 48.1639 155.422 48.1639 155.422L19.6279 162.34C19.6279 162.34 19.9749 164.416 20.5519 167.875C21.2449 167.644 21.8229 167.413 22.4009 167.298Z" fill="#E09B8D"/>
<path d="M113.785 208.46C113.785 208.46 135.504 202.695 135.504 198.313C135.504 193.932 127.648 178.136 133.194 199.236C133.194 199.236 121.641 170.642 130.883 200.619C130.883 200.619 121.872 177.329 127.995 201.196C127.995 201.196 118.752 185.054 125.453 202.349L117.135 205.462L97.1476 205.231L86.5195 215.608L113.785 208.46Z" fill="#FFB39F"/>
<path d="M164.618 187.36C164.618 187.36 153.065 158.766 162.307 188.744C162.307 188.744 153.296 165.453 159.419 189.32C159.419 189.32 150.176 173.178 156.068 190.588L149.714 193.586C152.025 193.817 155.029 193.701 157.455 192.894C164.849 191.395 166.928 188.859 166.928 186.553C166.928 182.172 159.072 166.376 164.618 187.36Z" fill="#FFB39F"/>
<path d="M194.078 490.825C194.078 494.976 190.728 498.435 186.569 498.55C182.409 498.55 178.944 495.207 178.828 491.056L178.481 466.613C178.481 462.462 181.832 459.003 185.991 458.888C190.15 458.888 193.616 462.231 193.731 466.382L194.078 490.825Z" fill="#091E1D"/>
<path d="M87.6751 492.095C87.6751 496.245 84.3251 499.704 80.1661 499.82C76.0071 499.82 72.5411 496.476 72.4251 492.325L72.0791 467.882C72.0791 463.731 75.4291 460.272 79.5881 460.157C83.7471 460.157 87.2131 463.501 87.3291 467.651L87.6751 492.095Z" fill="#091E1D"/>
<path d="M185.529 473.415C185.645 482.87 178.02 490.595 168.546 490.71L97.3801 491.517C87.9071 491.633 80.1661 484.023 80.0511 474.568L72.4261 312.92C72.3101 303.466 79.9351 295.741 89.4081 295.625L172.012 294.588C181.486 294.472 189.226 302.082 189.342 311.536L185.529 473.415Z" fill="#322153"/>
<path d="M188.879 327.793L189.226 311.767C189.111 302.313 181.37 294.703 171.897 294.818L89.2929 295.856C79.8189 295.971 72.1939 303.696 72.3099 313.151L73.1189 329.177L188.879 327.793Z" fill="#1C0C3B"/>
<path d="M202.974 307.732C202.974 310.383 200.895 312.459 198.237 312.574L63.2989 314.188C60.6409 314.188 58.5619 312.113 58.4459 309.461L58.2148 292.397C58.2148 289.745 60.2948 287.67 62.9518 287.554L197.891 285.94C200.548 285.94 202.628 288.016 202.743 290.667L202.974 307.732Z" fill="#322153"/>
<path d="M131.346 355.119L147.058 345.665L143.245 355.465L131.346 355.119Z" fill="white"/>
<path d="M125.454 340.246C125.454 340.246 126.724 340.246 128.688 343.243C130.652 346.241 135.043 354.312 135.043 354.312L143.014 350.738L144.863 347.625C144.863 347.625 141.397 340.707 138.624 340.246H125.454Z" fill="white"/>
<path d="M121.064 342.321C121.064 342.321 123.49 339.669 125.454 341.053C127.418 342.437 130.884 348.202 130.884 348.202L125.223 358.117L115.056 352.468L121.064 342.321Z" fill="white"/>
<path d="M138.509 367.456L139.317 385.673L132.501 377.718L138.509 367.456Z" fill="white"/>
<path d="M154.451 369.301C154.451 369.301 153.874 370.454 150.292 370.8C146.711 371.146 137.469 371.146 137.469 371.146L136.775 379.908L138.624 383.022C138.624 383.022 146.364 383.367 148.097 381.061L154.451 369.301Z" fill="white"/>
<path d="M154.567 364.458C154.567 364.458 155.838 367.802 153.643 368.955C151.563 369.993 144.747 370.223 144.747 370.223L138.624 360.538L148.444 354.197L154.567 364.458Z" fill="white"/>
<path d="M124.76 367.226L108.585 358.694L118.868 356.849L124.76 367.226Z" fill="white"/>
<path d="M115.056 380.024C115.056 380.024 114.363 378.986 115.865 375.758C117.367 372.529 121.988 364.574 121.988 364.574L114.825 359.616L111.244 359.731C111.244 359.731 107.085 366.303 108.124 368.84L115.056 380.024Z" fill="white"/>
<path d="M119.215 382.56C119.215 382.56 115.634 381.868 115.865 379.562C115.98 377.141 119.215 371.261 119.215 371.261L130.653 370.915L131.115 382.56H119.215Z" fill="white"/>
</svg>
